<svg xmlns="http://www.w3.org/2000/svg" xmlns:xlink="http://www.w3.org/1999/xlink" width="300" zoomAndPan="magnify" viewBox="0 0 224.87999 74.999997" height="100" preserveAspectRatio="xMidYMid meet" version="1.0"><defs><clipPath id="b63df91dcf"><path d="M 0 73 L 224.761719 73 L 224.761719 74.980469 L 0 74.980469 Z M 0 73 " clip-rule="nonzero"/></clipPath><clipPath id="a0bacdcb44"><path d="M 0 0.0195312 L 224.761719 0.0195312 L 224.761719 2 L 0 2 Z M 0 0.0195312 " clip-rule="nonzero"/></clipPath><clipPath id="1a68952419"><path d="M 223 0.0195312 L 224.761719 0.0195312 L 224.761719 74.980469 L 223 74.980469 Z M 223 0.0195312 " clip-rule="nonzero"/></clipPath><clipPath id="0e80c76370"><path d="M 0 0.0195312 L 2 0.0195312 L 2 74.980469 L 0 74.980469 Z M 0 0.0195312 " clip-rule="nonzero"/></clipPath></defs><g clip-path="url(#b63df91dcf)"><path fill="#101a34ff" d="M 0 73.480469 L 17.992188 73.480469 L 17.992188 76.480469 L 0 76.480469 M 20.988281 73.480469 L 38.980469 73.480469 L 38.980469 76.480469 L 20.988281 76.480469 M 41.976562 73.480469 L 59.96875 73.480469 L 59.96875 76.480469 L 41.976562 76.480469 M 62.964844 73.480469 L 80.957031 73.480469 L 80.957031 76.480469 L 62.964844 76.480469 M 83.957031 73.480469 L 101.945312 73.480469 L 101.945312 76.480469 L 83.957031 76.480469 M 104.945312 73.480469 L 122.933594 73.480469 L 122.933594 76.480469 L 104.945312 76.480469 M 125.933594 73.480469 L 143.921875 73.480469 L 143.921875 76.480469 L 125.933594 76.480469 M 146.921875 73.480469 L 164.910156 73.480469 L 164.910156 76.480469 L 146.921875 76.480469 M 167.910156 73.480469 L 185.902344 73.480469 L 185.902344 76.480469 L 167.910156 76.480469 M 188.898438 73.480469 L 206.890625 73.480469 L 206.890625 76.480469 L 188.898438 76.480469 M 209.886719 73.480469 L 224.878906 73.480469 L 224.878906 76.480469 L 209.886719 76.480469 " fill-opacity="1" fill-rule="nonzero"/></g><g clip-path="url(#a0bacdcb44)"><path fill="#101a34ff" d="M 0 -1.480469 L 17.992188 -1.480469 L 17.992188 1.519531 L 0 1.519531 M 20.988281 -1.480469 L 38.980469 -1.480469 L 38.980469 1.519531 L 20.988281 1.519531 M 41.976562 -1.480469 L 59.96875 -1.480469 L 59.96875 1.519531 L 41.976562 1.519531 M 62.964844 -1.480469 L 80.957031 -1.480469 L 80.957031 1.519531 L 62.964844 1.519531 M 83.957031 -1.480469 L 101.945312 -1.480469 L 101.945312 1.519531 L 83.957031 1.519531 M 104.945312 -1.480469 L 122.933594 -1.480469 L 122.933594 1.519531 L 104.945312 1.519531 M 125.933594 -1.480469 L 143.921875 -1.480469 L 143.921875 1.519531 L 125.933594 1.519531 M 146.921875 -1.480469 L 164.910156 -1.480469 L 164.910156 1.519531 L 146.921875 1.519531 M 167.910156 -1.480469 L 185.902344 -1.480469 L 185.902344 1.519531 L 167.910156 1.519531 M 188.898438 -1.480469 L 206.890625 -1.480469 L 206.890625 1.519531 L 188.898438 1.519531 M 209.886719 -1.480469 L 224.878906 -1.480469 L 224.878906 1.519531 L 209.886719 1.519531 " fill-opacity="1" fill-rule="nonzero"/></g><g clip-path="url(#1a68952419)"><path fill="#101a34ff" d="M 223.378906 74.980469 L 223.378906 65.984375 L 226.378906 65.984375 L 226.378906 74.980469 M 223.378906 62.988281 L 223.378906 53.992188 L 226.378906 53.992188 L 226.378906 62.988281 M 223.378906 50.992188 L 223.378906 41.996094 L 226.378906 41.996094 L 226.378906 50.992188 M 223.378906 39 L 223.378906 30.003906 L 226.378906 30.003906 L 226.378906 39 M 223.378906 27.003906 L 223.378906 18.011719 L 226.378906 18.011719 L 226.378906 27.003906 M 223.378906 15.011719 L 223.378906 6.015625 L 226.378906 6.015625 L 226.378906 15.011719 M 223.378906 3.019531 L 223.378906 0.0195312 L 226.378906 0.0195312 L 226.378906 3.019531 " fill-opacity="1" fill-rule="nonzero"/></g><g clip-path="url(#0e80c76370)"><path fill="#101a34ff" d="M -1.5 74.980469 L -1.5 65.984375 L 1.5 65.984375 L 1.5 74.980469 M -1.5 62.988281 L -1.5 53.992188 L 1.5 53.992188 L 1.5 62.988281 M -1.5 50.992188 L -1.5 41.996094 L 1.5 41.996094 L 1.5 50.992188 M -1.5 39 L -1.5 30.003906 L 1.5 30.003906 L 1.5 39 M -1.5 27.003906 L -1.5 18.011719 L 1.5 18.011719 L 1.5 27.003906 M -1.5 15.011719 L -1.5 6.015625 L 1.5 6.015625 L 1.5 15.011719 M -1.5 3.019531 L -1.5 0.0195312 L 1.5 0.0195312 L 1.5 3.019531 " fill-opacity="1" fill-rule="nonzero"/></g><path fill="#101a34ff" d="M 1.820312 37.5 L 4.070312 37.5 L 4.070312 38.25 L 1.820312 38.25 M 4.816406 37.5 L 7.066406 37.5 L 7.066406 38.25 L 4.816406 38.25 M 7.816406 37.5 L 10.066406 37.5 L 10.066406 38.25 L 7.816406 38.25 M 10.816406 37.5 L 13.0625 37.5 L 13.0625 38.25 L 10.816406 38.25 M 13.8125 37.5 L 16.0625 37.5 L 16.0625 38.25 L 13.8125 38.25 M 16.8125 37.5 L 19.0625 37.5 L 19.0625 38.25 L 16.8125 38.25 M 19.808594 37.5 L 22.058594 37.5 L 22.058594 38.25 L 19.808594 38.25 M 22.808594 37.5 L 25.058594 37.5 L 25.058594 38.25 L 22.808594 38.25 M 25.808594 37.5 L 28.054688 37.5 L 28.054688 38.25 L 25.808594 38.25 M 28.804688 37.5 L 31.054688 37.5 L 31.054688 38.25 L 28.804688 38.25 M 31.804688 37.5 L 34.050781 37.5 L 34.050781 38.25 L 31.804688 38.25 M 34.800781 37.5 L 37.050781 37.5 L 37.050781 38.25 L 34.800781 38.25 M 37.800781 37.5 L 40.050781 37.5 L 40.050781 38.25 L 37.800781 38.25 M 40.800781 37.5 L 43.046875 37.5 L 43.046875 38.25 L 40.800781 38.25 M 43.796875 37.5 L 46.046875 37.5 L 46.046875 38.25 L 43.796875 38.25 M 46.796875 37.5 L 49.042969 37.5 L 49.042969 38.25 L 46.796875 38.25 M 49.792969 37.5 L 52.042969 37.5 L 52.042969 38.25 L 49.792969 38.25 M 52.792969 37.5 L 55.042969 37.5 L 55.042969 38.25 L 52.792969 38.25 M 55.789062 37.5 L 58.039062 37.5 L 58.039062 38.25 L 55.789062 38.25 M 58.789062 37.5 L 61.039062 37.5 L 61.039062 38.25 L 58.789062 38.25 M 61.789062 37.5 L 64.035156 37.5 L 64.035156 38.25 L 61.789062 38.25 M 64.785156 37.5 L 67.035156 37.5 L 67.035156 38.25 L 64.785156 38.25 M 67.785156 37.5 L 70.035156 37.5 L 70.035156 38.25 L 67.785156 38.25 M 70.78125 37.5 L 73.03125 37.5 L 73.03125 38.25 L 70.78125 38.25 M 73.78125 37.5 L 76.03125 37.5 L 76.03125 38.25 L 73.78125 38.25 M 76.78125 37.5 L 79.027344 37.5 L 79.027344 38.25 L 76.78125 38.25 M 79.777344 37.5 L 82.027344 37.5 L 82.027344 38.25 L 79.777344 38.25 M 82.777344 37.5 L 85.023438 37.5 L 85.023438 38.25 L 82.777344 38.25 M 85.773438 37.5 L 88.023438 37.5 L 88.023438 38.25 L 85.773438 38.25 M 88.773438 37.5 L 91.023438 37.5 L 91.023438 38.25 L 88.773438 38.25 M 91.773438 37.5 L 94.019531 37.5 L 94.019531 38.25 L 91.773438 38.25 M 94.769531 37.5 L 97.019531 37.5 L 97.019531 38.25 L 94.769531 38.25 M 97.769531 37.5 L 100.015625 37.5 L 100.015625 38.25 L 97.769531 38.25 M 100.765625 37.5 L 103.015625 37.5 L 103.015625 38.25 L 100.765625 38.25 M 103.765625 37.5 L 106.015625 37.5 L 106.015625 38.25 L 103.765625 38.25 M 106.765625 37.5 L 109.011719 37.5 L 109.011719 38.25 L 106.765625 38.25 M 109.761719 37.5 L 112.011719 37.5 L 112.011719 38.25 L 109.761719 38.25 M 112.761719 37.5 L 115.007812 37.5 L 115.007812 38.25 L 112.761719 38.25 M 115.757812 37.5 L 118.007812 37.5 L 118.007812 38.25 L 115.757812 38.25 M 118.757812 37.5 L 121.007812 37.5 L 121.007812 38.25 L 118.757812 38.25 M 121.753906 37.5 L 124.003906 37.5 L 124.003906 38.25 L 121.753906 38.25 M 124.753906 37.5 L 127.003906 37.5 L 127.003906 38.25 L 124.753906 38.25 M 127.753906 37.5 L 130 37.5 L 130 38.25 L 127.753906 38.25 M 130.75 37.5 L 133 37.5 L 133 38.25 L 130.75 38.25 M 133.75 37.5 L 136 37.5 L 136 38.25 L 133.75 38.25 M 136.746094 37.5 L 138.996094 37.5 L 138.996094 38.25 L 136.746094 38.25 M 139.746094 37.5 L 141.996094 37.5 L 141.996094 38.25 L 139.746094 38.25 M 142.746094 37.5 L 144.992188 37.5 L 144.992188 38.25 L 142.746094 38.25 M 145.742188 37.5 L 147.992188 37.5 L 147.992188 38.25 L 145.742188 38.25 M 148.742188 37.5 L 150.988281 37.5 L 150.988281 38.25 L 148.742188 38.25 M 151.738281 37.5 L 153.988281 37.5 L 153.988281 38.25 L 151.738281 38.25 M 154.738281 37.5 L 156.988281 37.5 L 156.988281 38.25 L 154.738281 38.25 M 157.738281 37.5 L 159.984375 37.5 L 159.984375 38.25 L 157.738281 38.25 M 160.734375 37.5 L 162.984375 37.5 L 162.984375 38.25 L 160.734375 38.25 M 163.734375 37.5 L 165.980469 37.5 L 165.980469 38.25 L 163.734375 38.25 M 166.730469 37.5 L 168.980469 37.5 L 168.980469 38.25 L 166.730469 38.25 M 169.730469 37.5 L 171.980469 37.5 L 171.980469 38.25 L 169.730469 38.25 M 172.730469 37.5 L 174.976562 37.5 L 174.976562 38.25 L 172.730469 38.25 M 175.726562 37.5 L 177.976562 37.5 L 177.976562 38.25 L 175.726562 38.25 M 178.726562 37.5 L 180.972656 37.5 L 180.972656 38.25 L 178.726562 38.25 M 181.722656 37.5 L 183.972656 37.5 L 183.972656 38.25 L 181.722656 38.25 M 184.722656 37.5 L 186.972656 37.5 L 186.972656 38.25 L 184.722656 38.25 M 187.71875 37.5 L 189.96875 37.5 L 189.96875 38.25 L 187.71875 38.25 M 190.71875 37.5 L 192.96875 37.5 L 192.96875 38.25 L 190.71875 38.25 M 193.71875 37.5 L 195.964844 37.5 L 195.964844 38.25 L 193.71875 38.25 M 196.714844 37.5 L 198.964844 37.5 L 198.964844 38.25 L 196.714844 38.25 M 199.714844 37.5 L 201.964844 37.5 L 201.964844 38.25 L 199.714844 38.25 M 202.710938 37.5 L 204.960938 37.5 L 204.960938 38.25 L 202.710938 38.25 M 205.710938 37.5 L 207.960938 37.5 L 207.960938 38.25 L 205.710938 38.25 M 208.710938 37.5 L 210.957031 37.5 L 210.957031 38.25 L 208.710938 38.25 M 211.707031 37.5 L 213.957031 37.5 L 213.957031 38.25 L 211.707031 38.25 M 214.707031 37.5 L 216.953125 37.5 L 216.953125 38.25 L 214.707031 38.25 M 217.703125 37.5 L 219.953125 37.5 L 219.953125 38.25 L 217.703125 38.25 M 220.703125 37.5 L 222.953125 37.5 L 222.953125 38.25 L 220.703125 38.25 " fill-opacity="1" fill-rule="nonzero"/></svg>