<?xml version="1.0" encoding="UTF-8" standalone="no"?>
<!DOCTYPE svg PUBLIC "-//W3C//DTD SVG 1.1//EN" "http://www.w3.org/Graphics/SVG/1.1/DTD/svg11.dtd">
<svg width="100%" height="100%" viewBox="0 0 159 159" version="1.1" xmlns="http://www.w3.org/2000/svg" xmlns:xlink="http://www.w3.org/1999/xlink" xml:space="preserve" xmlns:serif="http://www.serif.com/" style="fill-rule:evenodd;clip-rule:evenodd;stroke-linejoin:round;stroke-miterlimit:2;">
    <g transform="matrix(0.338298,0,0,1,0,0)">
        <g transform="matrix(2.955975,0,0,1,-917.713413,0)">
            <path d="M390,138.6C357.2,138.6 330.5,112 330.5,79.2C330.5,46.4 357.2,19.7 390,19.7C422.8,19.7 449.5,46.4 449.5,79.2C449.5,112 422.8,138.6 390,138.6ZM469.2,77.2L469.2,77L469,76.9C465.6,74.8 461.2,73.7 456.9,73.6C456.8,73 456.3,69 456.2,68.4C460.3,67.2 464.3,65 467,62.1L467.2,62L467.2,61.8C466.9,60.2 466.4,58.1 465.8,56.8L465.7,56.6L465.5,56.5C461.7,55.4 457.2,55.5 453,56.5C452.8,56 451.3,52.3 451.1,51.7C454.7,49.5 458,46.3 459.9,42.9L460,42.7L459.9,42.5C459.4,41.2 458.2,39.3 457.4,38L457.2,37.9L457,37.9C453.1,37.8 448.7,39 444.9,41.1C444.6,40.6 442,37.3 441.7,36.9C444.7,33.8 447,29.9 448,26L448,25.8L447.9,25.7C447,24.5 445.4,22.9 444.3,22L444.1,21.9L443.9,21.9C440,22.9 436.1,25.2 433.1,28.1C432.6,27.8 429.3,25.2 428.9,24.9C430.9,21.2 432.1,17 432.1,13.1C432.1,13 432.1,12.6 432.1,12.6L432,12.4C430.8,11.5 428.9,10.4 427.5,9.8L427.3,9.8L427.1,9.9C423.7,11.8 420.5,15 418.3,18.7C417.7,18.4 413.8,16.8 413.3,16.6C413.8,14.5 414.1,12.4 414.1,10.2C414.1,8.1 413.9,6 413.3,4.1L413.2,3.9L413,3.8C411.7,3.2 409.6,2.6 408.1,2.4L407.8,2.4L407.7,2.5C404.9,5.3 402.6,9.2 401.4,13.4C400.8,13.3 396.8,12.8 396.1,12.7C396.1,8.4 394.9,4 392.9,0.6L392.8,0.4L392.6,0.4C391.1,0.2 388.9,0.2 387.4,0.4L387.2,0.4L387.1,0.6C385.1,4 383.9,8.4 383.9,12.7C383.3,12.8 379.1,13.3 378.5,13.4C377.3,9.2 375.1,5.3 372.2,2.5L372.1,2.4L371.8,2.4C370.3,2.6 368.2,3.2 366.9,3.7L366.7,3.8L366.6,4C366.1,5.9 365.8,8.1 365.8,10.2C365.8,12.3 366.1,14.5 366.6,16.5C366.1,16.7 362.1,18.5 361.6,18.7C359.3,15 356.2,11.8 352.7,9.8L352.6,9.7L352.3,9.8C351,10.4 349.1,11.5 347.9,12.4L347.7,12.5L347.7,13.1C347.7,16.9 348.9,21.2 350.9,24.9C350.5,25.2 347.5,27.6 347.1,27.9C344,24.9 340.1,22.6 336.2,21.7L336,21.6L335.9,21.8C334.7,22.6 333.1,24.2 332.2,25.4L332,25.5L332.1,25.8C333.1,29.6 335.4,33.5 338.3,36.6C338,37.1 335.4,40.5 335,40.9C331.3,38.9 326.9,37.6 323,37.7L322.8,37.7L322.6,37.9C321.7,39 320.6,40.9 320,42.3L320,42.5L320.1,42.7C322,46.1 325.2,49.3 328.9,51.6C328.7,52.1 327.2,55.8 326.9,56.3C322.7,55.3 318.2,55.3 314.4,56.4L314.2,56.4L314.1,56.6C313.6,57.9 313,60 312.8,61.6L312.8,61.8L312.9,62C315.7,64.8 319.6,67 323.7,68.2C323.7,68.8 323.1,72.9 323.1,73.4C318.8,73.5 314.3,74.6 311,76.7L310.8,76.8L310.8,77C310.7,77.7 310.6,78.6 310.6,79.6C310.6,80.5 310.7,81.4 310.8,82.1L310.8,82.4L311,82.5C314.3,84.5 318.7,85.6 323,85.7C323.1,86.3 323.7,90.5 323.8,91.1C319.6,92.3 315.7,94.5 313,97.4L312.8,97.5L312.8,97.7C313.1,99.3 313.6,101.4 314.2,102.7L314.2,102.9L314.4,103C318.3,104.1 322.8,104 327,103C327.2,103.5 328.8,107.2 329.1,107.7C325.4,109.9 322.2,113.1 320.2,116.6L320.1,116.8L320.2,117C320.8,118.3 321.9,120.2 322.8,121.4L322.9,121.6L323.1,121.6C327.1,121.7 331.4,120.5 335.2,118.4C335.6,118.8 338.1,122.2 338.5,122.6C335.5,125.7 333.2,129.6 332.2,133.5L332.1,133.6L332.3,133.8C333.2,135 334.7,136.5 335.9,137.5L336.1,137.6L336.3,137.6C340.1,136.6 344,134.3 347.1,131.3C347.6,131.7 350.9,134.2 351.4,134.6C349.4,138.3 348.2,142.6 348.2,146.5L348.2,146.9L348.4,147.1C349.5,148 351.4,149 352.8,149.7L353,149.7L353.2,149.6C356.7,147.7 359.8,144.5 362.1,140.7C362.6,141 366.2,142.4 366.8,142.6C366.2,144.7 365.9,146.8 365.9,148.9C365.9,151.1 366.2,153.2 366.8,155.1L366.8,155.3L367,155.4C368.4,156 370.5,156.5 372,156.8L372.2,156.8L372.4,156.7C375.2,153.9 377.5,149.9 378.6,145.8C379.2,145.9 383.4,146.5 384,146.6C384,150.9 385.2,155.3 387.2,158.6L387.3,158.8L387.5,158.9C389,159 391.2,159 392.7,158.9L392.9,158.8L393,158.6C395,155.3 396.2,150.9 396.3,146.6C396.9,146.5 400.8,145.9 401.4,145.8C402.5,150 404.8,153.9 407.6,156.7L407.8,156.8L408,156.8C409.5,156.6 411.7,156 413,155.5L413.2,155.4L413.2,155.2C413.8,153.3 414,151.1 414,149C414,146.8 413.7,144.7 413.2,142.6C413.8,142.4 417.6,140.8 418.1,140.5C420.3,144.2 423.5,147.5 426.9,149.4L427.1,149.5L427.3,149.4C428.7,148.8 430.6,147.7 431.8,146.8L432,146.7C432,146.7 432,146.3 432,146.1C432,142.3 430.8,138.1 428.8,134.4C429.2,134 432.4,131.6 432.8,131.2C435.9,134.2 439.9,136.5 443.7,137.5L443.9,137.5L444,137.4C445.2,136.5 446.8,134.9 447.7,133.7L447.9,133.6L447.8,133.4C446.8,129.5 444.6,125.6 441.6,122.5C441.9,122.1 444.4,118.7 444.8,118.3C448.6,120.3 452.9,121.5 456.9,121.5L457.1,121.5L457.2,121.3C458.1,120.1 459.2,118.2 459.8,116.8L459.9,116.6L459.8,116.4C457.9,113.1 454.7,109.9 451,107.5C451.2,107 452.7,103.4 453,102.8C457.1,103.9 461.6,103.9 465.5,102.8L465.6,102.8L465.7,102.6C466.3,101.2 466.8,99.2 467.1,97.6L467.1,97.4L466.9,97.2C464.2,94.4 460.3,92.2 456.2,91C456.2,90.4 456.8,86.5 456.9,85.9C461.2,85.8 465.6,84.7 469,82.6L469.2,82.5L469.2,82.3C469.3,81.6 469.3,80.7 469.3,79.7C469.3,78.8 469.3,77.9 469.2,77.2Z" style="fill-rule:nonzero;"/>
        </g>
        <g transform="matrix(2.955975,0,0,1,-917.713413,0)">
            <path d="M431.6,63.1C432.2,63.3 432.4,64 432.6,64.6C435.7,75 435.7,83.9 432.6,94.4C432.4,95.3 432,95.8 431.5,96C430.9,96.2 430.1,95.7 429.5,95.2L409.2,81.5C408.4,81 408,80.3 408,79.5C408,78.8 408.4,78.1 409.2,77.5L429.5,63.8C430.4,63.2 431.1,62.9 431.6,63.1ZM424.2,109C416.7,116.9 409,121.3 398.5,123.8C397.6,124.1 396.9,124 396.6,123.7C396,123.2 396.1,122.3 396.1,121.5L397.9,97.1C398,96.1 398.4,95.4 399,95C399.7,94.7 400.5,94.7 401.3,95.1L423.3,105.7C424.4,106.3 424.9,106.8 425,107.3C425.1,107.9 424.7,108.5 424.2,109ZM390,93.6C382.1,93.6 375.7,87.2 375.7,79.3C375.7,74.5 378.1,70 382.1,67.4C383.4,66.5 385.2,66.8 386.1,68.2C387,69.5 386.6,71.3 385.3,72.2C382.9,73.7 381.4,76.4 381.4,79.3C381.4,84 385.3,87.8 390,87.8C394.7,87.8 398.5,84 398.5,79.3C398.5,76.4 397.1,73.7 394.6,72.2C393.3,71.3 393,69.5 393.8,68.2C394.7,66.8 396.5,66.5 397.8,67.3C401.8,70 404.3,74.5 404.3,79.3C404.3,87.2 397.8,93.6 390,93.6ZM383.7,124C383.2,124.4 382.5,124.3 381.9,124.1C371.4,121.6 363.6,117.2 356.1,109.2C355.6,108.7 355.3,108.2 355.3,107.7C355.3,107.6 355.3,107.6 355.3,107.5C355.4,106.8 356.3,106.4 357,106.1L379,95.4C379.9,95 380.7,95 381.3,95.3C382,95.7 382.4,96.4 382.4,97.4L384.2,121.8C384.3,123 384.1,123.7 383.7,124ZM350.5,95.4C349.5,96 348.8,96.3 348.3,96.1C347.7,95.9 347.5,95.2 347.3,94.6C344.2,84.2 344.2,75.3 347.3,64.8C347.5,63.9 347.9,63.4 348.4,63.3C349.1,63 349.8,63.5 350.5,64L370.7,77.7C371.5,78.2 371.9,78.9 371.9,79.7C371.9,80.4 371.5,81.1 370.8,81.7L350.5,95.4ZM355.7,50.2L355.7,50.2C363.3,42.3 371,37.8 381.5,35.3C382.1,35.2 382.8,35.1 383.3,35.5C383.7,35.8 383.9,36.5 383.8,37.7L382,62.1C382,63 381.6,63.8 380.9,64.1C380.3,64.5 379.5,64.5 378.6,64.1L356.6,53.4C355.9,53.1 355.1,52.7 354.9,52C354.8,51.5 355.1,50.9 355.7,50.2ZM396.6,35.3C397.1,34.9 397.8,35 398.4,35.1C408.9,37.7 416.6,42.1 424.2,50C424.7,50.6 425,51.1 425,51.6C425,51.6 425,51.7 425,51.8C424.8,52.5 424,52.9 423.3,53.2L401.3,63.9C400.4,64.3 399.6,64.3 399,63.9C398.3,63.6 397.9,62.8 397.9,61.9L396.1,37.5C396,36.3 396.2,35.6 396.6,35.3ZM390,26.9C361.2,26.9 337.7,50.3 337.7,79.2C337.7,108 361.2,131.5 390,131.5C418.8,131.5 442.3,108 442.3,79.2C442.3,50.3 418.8,26.9 390,26.9Z" style="fill-rule:nonzero;"/>
        </g>
    </g>
</svg>
