<svg width="2459" height="2108" viewBox="0 0 2459 2108" fill="none" xmlns="http://www.w3.org/2000/svg">
<g filter="url(#filter0_gn_2_3)">
<path d="M835.904 33.9398C843.326 28.1899 844.682 17.5118 838.932 10.0896C833.182 2.66745 822.504 1.31183 815.081 7.06176L825.493 20.5008L835.904 33.9398ZM86.9926 2104.5L199.103 1943.37L3.50003 1926.84L86.9926 2104.5ZM2428.49 932.501L2444.89 936.984L2428.49 932.501ZM825.493 20.5008L815.081 7.06176C778.562 35.3529 750.99 60.3965 731.828 82.5794C712.951 104.432 700.778 125.157 697.892 144.796C694.749 166.185 702.939 183.947 718.918 196.879C733.816 208.936 755.223 216.721 779.941 221.953C829.706 232.485 901.082 234.246 984.885 231.156C1069.06 228.053 1167.22 219.978 1271.2 210.239C1479.61 190.72 1711.35 164.544 1904.7 157.513C2001.36 153.998 2087.6 155.311 2155.97 164.451C2190.15 169.02 2219.37 175.482 2242.96 184.026C2266.67 192.611 2283.69 202.935 2294.56 214.594L2306.99 203.001L2319.43 191.407C2303.55 174.379 2281.08 161.668 2254.54 152.057C2227.89 142.406 2196.09 135.512 2160.48 130.751C2089.28 121.233 2000.81 119.996 1903.47 123.535C1708.82 130.614 1475.37 156.969 1268.03 176.387C1164.14 186.117 1066.79 194.113 983.632 197.179C900.106 200.259 832.342 198.29 786.981 188.69C764.138 183.855 748.986 177.473 740.307 170.45C732.71 164.301 730.306 158.07 731.531 149.739C733.012 139.658 740.167 124.937 757.557 104.805C774.663 85.0035 800.298 61.5237 835.904 33.9398L825.493 20.5008ZM2306.99 203.001L2294.56 214.594C2306.66 227.577 2312.64 238.635 2314.84 247.807C2316.95 256.585 2315.9 264.738 2311.75 273.044C2302.77 291.019 2279.17 309.948 2240.35 329.154C2163.75 367.057 2042.71 399.19 1917.67 431.543C1793.93 463.558 1666.43 495.75 1580.72 533.824C1538.29 552.672 1502.94 574.259 1484.28 600.433C1474.6 614.014 1469.04 629.371 1469.96 646.205C1470.87 662.857 1478.01 678.967 1490.08 694.451L1503.49 684.001L1516.9 673.551C1507.78 661.847 1504.34 652.203 1503.91 644.35C1503.49 636.679 1505.83 628.778 1511.97 620.166C1524.95 601.953 1552.85 583.408 1594.52 564.896C1677.02 528.251 1801.11 496.819 1926.19 464.459C2049.95 432.436 2174.96 399.445 2255.43 359.628C2295.15 339.975 2327.85 316.897 2342.16 288.235C2349.66 273.222 2352 256.9 2347.9 239.86C2343.9 223.215 2334.07 207.112 2319.43 191.407L2306.99 203.001ZM1503.49 684.001L1490.08 694.451C1514.23 725.432 1549.97 744.943 1591.66 757.026C1633.34 769.106 1682.27 774.146 1734.57 775.263C1838.79 777.487 1961 764.074 2071.76 756.587C2127.54 752.817 2180.6 750.514 2228.02 752.211C2275.61 753.913 2316.42 759.619 2348.14 771.257C2379.62 782.811 2400.75 799.649 2411.76 823.005C2422.9 846.641 2425.19 880.13 2412.09 928.017L2428.49 932.501L2444.89 936.984C2459.17 884.746 2458.38 842.173 2442.51 808.509C2426.51 774.563 2396.71 752.863 2359.85 739.338C2323.22 725.898 2278.28 719.987 2229.24 718.232C2180.03 716.472 2125.57 718.872 2069.47 722.664C1956.48 730.302 1837.51 743.452 1735.29 741.27C1684.37 740.183 1638.76 735.278 1601.13 724.37C1563.5 713.465 1535.13 696.944 1516.9 673.551L1503.49 684.001ZM2428.49 932.501L2412.09 928.017C2360.33 1117.35 2206.77 1206.04 1994.82 1248.58C1782.2 1291.26 1517 1286.22 1249.33 1292.27C983.185 1298.28 715.003 1315.31 501.964 1404.08C395.097 1448.61 301.6 1511.38 229.109 1600.22C156.583 1689.11 105.789 1803.24 83.0755 1949.39L99.8739 1952L116.672 1954.61C138.588 1813.6 187.251 1705.31 255.453 1621.72C323.691 1538.09 412.194 1478.32 515.042 1435.47C721.434 1349.46 983.544 1332.29 1250.1 1326.26C1515.14 1320.27 1785.05 1325.36 2001.51 1281.92C2218.63 1238.34 2388.11 1144.66 2444.89 936.984L2428.49 932.501Z" fill="#00A2E0"/>
</g>
<defs>
<filter id="filter0_gn_2_3" x="0" y="0" width="2458.54" height="2108" filterUnits="userSpaceOnUse" color-interpolation-filters="sRGB">
<feFlood flood-opacity="0" result="BackgroundImageFix"/>
<feBlend mode="normal" in="SourceGraphic" in2="BackgroundImageFix" result="shape"/>
<feTurbulence type="fractalNoise" baseFrequency="0.1666666716337204 0.5" numOctaves="3" seed="7981" />
<feDisplacementMap in="shape" scale="7" xChannelSelector="R" yChannelSelector="G" result="displacedImage" width="100%" height="100%" />
<feMerge result="effect1_texture_2_3">
<feMergeNode in="displacedImage"/>
</feMerge>
<feTurbulence type="fractalNoise" baseFrequency="0.5 1" stitchTiles="stitch" numOctaves="3" result="noise" seed="1986" />
<feColorMatrix in="noise" type="luminanceToAlpha" result="alphaNoise" />
<feComponentTransfer in="alphaNoise" result="coloredNoise1">
<feFuncA type="discrete" tableValues="0 0 0 0 0 0 0 1 1 1 1 1 1 1 1 1 1 1 1 1 1 1 1 1 1 1 1 1 1 1 1 1 1 1 1 1 1 1 1 1 1 1 1 0 0 0 0 0 0 0 0 0 0 0 0 0 0 0 0 0 0 0 0 0 0 0 0 0 0 0 0 0 0 0 0 0 0 0 0 0 0 0 0 0 0 0 0 0 0 0 0 0 0 0 0 0 0 0 0 0 "/>
</feComponentTransfer>
<feComposite operator="in" in2="effect1_texture_2_3" in="coloredNoise1" result="noise1Clipped" />
<feFlood flood-color="rgba(0, 0, 0, 0.25)" result="color1Flood" />
<feComposite operator="in" in2="noise1Clipped" in="color1Flood" result="color1" />
<feMerge result="effect2_noise_2_3">
<feMergeNode in="effect1_texture_2_3" />
<feMergeNode in="color1" />
</feMerge>
</filter>
</defs>
</svg>
